<svg width="309" height="352" viewBox="0 0 309 352" fill="none" xmlns="http://www.w3.org/2000/svg">
<path d="M154 0C141.831 0 132 9.83125 132 22V35.2C81.8125 45.375 44 89.7875 44 143V155.925C44 188.238 32.1063 219.45 10.6563 243.65L5.56877 249.356C-0.206226 255.819 -1.58123 265.1 1.92502 273.006C5.43127 280.913 13.3375 286 22 286H286C294.663 286 302.5 280.913 306.075 273.006C309.65 265.1 308.206 255.819 302.431 249.356L297.344 243.65C275.894 219.45 264 188.306 264 155.925V143C264 89.7875 226.188 45.375 176 35.2V22C176 9.83125 166.169 0 154 0ZM185.144 339.144C193.394 330.894 198 319.688 198 308H154H110C110 319.688 114.606 330.894 122.856 339.144C131.106 347.394 142.313 352 154 352C165.688 352 176.894 347.394 185.144 339.144Z" fill="#242B2C"/>
<path d="M96.7599 121.909H120.943L153.33 200.957H154.608L186.994 121.909H211.178V231H192.214V156.053H191.202L161.053 230.68H146.884L116.735 155.893H115.723V231H96.7599V121.909Z" fill="#F0662A"/>
</svg>
